# xmcd CD database file
#
# Track frame offsets:
#	150
#	9407
#	29900
#	41055
#	58035
#	73517
#	88830
#	105967
#	117617
#	128982
#	141092
#	153460
#	172817
#	185212
#
# Disc length: 2579 seconds
#
# Revision: 7
# Processed by: cddbd v1.5.2PL0 Copyright (c) Steve Scherf et al.
# Submitted via: CDex 1.51
#
DISCID=c80a110e
DTITLE=Blossom Dearie - Give Him The Ooh-La-La
DYEAR=1957
DGENRE=Jazz
TTITLE0=Just One Of Those Things
TTITLE1=Like Someone In Love
TTITLE2=Between The Devil And The Deep Blue Sea
TTITLE3=They Say It's Spring
TTITLE4=Try Your Wings
TTITLE5=Bang Goes The Drum (And You're In Love)
TTITLE6=The Riviera
TTITLE7=The Middle Of Love
TTITLE8=Plus Je T'Embrasse
TTITLE9=Give Him The Ooh-La-La
TTITLE10=Let Me Love You
TTITLE11=I Walk A Little Faster
TTITLE12=Give Him the Ooh-la-la (alternative take)
TTITLE13=Give Him the Ooh-la-la (break downs)
EXTD=YEAR: 1957
EXTT0=
EXTT1=
EXTT2=
EXTT3=
EXTT4=
EXTT5=
EXTT6=
EXTT7=
EXTT8=
EXTT9=
EXTT10=
EXTT11=
EXTT12=
EXTT13=
PLAYORDER=
